<?xml version="1.0" encoding="UTF-8"?>
<svg xmlns="http://www.w3.org/2000/svg" viewBox="0 0 256 256" width="256" height="256" aria-labelledby="title desc" role="img">
  <title>Icono del Curso: Optimización del Entrenamiento</title>
  <desc>Un libro abierto con una mancuerna y un gráfico de progreso, simbolizando ciencia + entrenamiento.</desc>
  <defs>
    <linearGradient id="bgGrad" x1="0" y1="0" x2="1" y2="1">
      <stop offset="0%" stop-color="#0ea5e9"/>
      <stop offset="100%" stop-color="#22c55e"/>
    </linearGradient>
    <filter id="shadow" x="-20%" y="-20%" width="140%" height="140%">
      <feDropShadow dx="0" dy="2" stdDeviation="3" flood-color="#000" flood-opacity="0.2"/>
    </filter>
  </defs>

  <!-- Fondo redondeado -->
  <rect x="16" y="16" rx="28" ry="28" width="224" height="224" fill="url(#bgGrad)"/>

  <!-- Libro abierto (ciencia) -->
  <g transform="translate(48,90)" filter="url(#shadow)">
    <path d="M0 0 h72 a16 16 0 0 1 16 16 v56 a12 12 0 0 1 -12 12 h-76 z" fill="#ffffff" opacity="0.95"/>
    <path d="M88 0 h72 v84 h-76 a12 12 0 0 1 -12 -12 v-56 a16 16 0 0 1 16 -16 z" fill="#ffffff" opacity="0.9"/>
    <!-- Líneas del libro -->
    <line x1="12" y1="20" x2="68" y2="20" stroke="#93c5fd" stroke-width="3"/>
    <line x1="12" y1="36" x2="68" y2="36" stroke="#93c5fd" stroke-width="3"/>
    <line x1="100" y1="20" x2="156" y2="20" stroke="#bae6fd" stroke-width="3"/>
    <line x1="100" y1="36" x2="156" y2="36" stroke="#bae6fd" stroke-width="3"/>
  </g>

  <!-- Mancuerna (entrenamiento) - barras y discos simétricos -->
  <g transform="translate(64,60)" filter="url(#shadow)">
    <!-- Barra -->
    <rect x="40" y="-6" width="80" height="12" rx="6" fill="#1f2937"/>
    <!-- Empuñadura con textura sutil -->
    <rect x="64" y="-8" width="32" height="16" rx="6" fill="#2f3b4a" opacity="0.95"/>
    <line x1="68" y1="-6" x2="92" y2="-6" stroke="#445264" stroke-width="2"/>
    <line x1="68" y1="0" x2="92" y2="0" stroke="#445264" stroke-width="2"/>

    <!-- Discos izquierdos (externo + interno) -->
    <rect x="24" y="-14" width="12" height="28" rx="4" fill="#3b4252"/>
    <rect x="34" y="-18" width="10" height="36" rx="5" fill="#4b5563"/>

    <!-- Discos derechos (externo + interno) -->
    <rect x="132" y="-14" width="12" height="28" rx="4" fill="#3b4252"/>
    <rect x="122" y="-18" width="10" height="36" rx="5" fill="#4b5563"/>
  </g>

  <!-- Gráfico de progreso (optimización) -->
  <g transform="translate(84,168)" filter="url(#shadow)">
    <path d="M0 36 L0 0 L120 0" stroke="#ffffff" stroke-width="4" fill="none" opacity="0.8"/>
    <polyline points="0,28 24,22 48,18 72,12 96,6 120,2" fill="none" stroke="#0ea5e9" stroke-width="5" stroke-linecap="round" stroke-linejoin="round"/>
    <circle cx="120" cy="2" r="6" fill="#22c55e"/>
  </g>

  <!-- Marca / iniciales "TL" (Teach-Laoz) -->
  <text x="224" y="44" text-anchor="end" font-family="Inter,Segoe UI,Arial" font-size="20" font-weight="700" fill="#ffffff" opacity="0.9">TL</text>
</svg>
