<svg xmlns="http://www.w3.org/2000/svg" viewBox="0 0 1150 900">
  <defs>
    <linearGradient id="c1" x1="0" y1="0" x2="1" y2="1">
      <stop offset="0%" stop-color="#34d399"/>
      <stop offset="100%" stop-color="#60a5fa"/>
    </linearGradient>
    <filter id="shadow" x="-20%" y="-20%" width="140%" height="140%">
      <feDropShadow dx="0" dy="2" stdDeviation="3" flood-color="#000" flood-opacity="0.25"/>
    </filter>
  </defs>
  <rect width="1150" height="900" fill="#0b1220"/>
  <text x="575" y="70" fill="#e5e7eb" font-size="36" text-anchor="middle" font-family="Inter,Segoe UI">Composición Corporal</text>

  <g filter="url(#shadow)">
    <rect x="80" y="120" width="990" height="260" rx="16" fill="#111827" stroke="#1f2937"/>
    <text x="100" y="155" fill="#9ca3af" font-size="18">Indicadores clave</text>
    <rect x="120" y="190" width="300" height="40" rx="10" fill="url(#c1)"/>
    <text x="270" y="216" fill="#0b1220" font-size="18" text-anchor="middle" font-weight="bold">Masa Magra (Músculo)</text>
    <rect x="460" y="190" width="300" height="40" rx="10" fill="#ef4444"/>
    <text x="610" y="216" fill="#0b1220" font-size="18" text-anchor="middle" font-weight="bold">Masa Grasa</text>
    <rect x="800" y="190" width="240" height="40" rx="10" fill="#374151"/>
    <text x="920" y="216" fill="#e5e7eb" font-size="18" text-anchor="middle" font-weight="bold">Peso Total</text>
  </g>

  <g filter="url(#shadow)">
    <rect x="80" y="410" width="990" height="180" rx="16" fill="#111827" stroke="#1f2937"/>
    <text x="100" y="445" fill="#9ca3af" font-size="18">Métodos de medición</text>
    <text x="100" y="475" fill="#e5e7eb" font-size="16">• Antropometría (pliegues) · BIA · DEXA</text>
    <text x="100" y="505" fill="#e5e7eb" font-size="16">• Progreso fotográfico y desempeño</text>
  </g>

  <g filter="url(#shadow)">
    <rect x="80" y="620" width="990" height="180" rx="16" fill="#111827" stroke="#1f2937"/>
    <text x="100" y="655" fill="#9ca3af" font-size="18">Estrategia</text>
    <text x="100" y="685" fill="#e5e7eb" font-size="16">• En superávit: ganancia magra máxima con mínima grasa</text>
    <text x="100" y="715" fill="#e5e7eb" font-size="16">• En déficit: preservar masa magra · proteína alta</text>
  </g>
</svg>
